# xmcd CD database file
#
# Track frame offsets:
#	150
#	14472
#	28597
#	43560
#	58162
#	71702
#	84492
#	95512
#	107020
#	120610
#	134007
#	146707
#	161175
#	175537
#	186325
#	199127
#	214037
#	226815
#	244142
#	257807
#
# Disc length: 3613 seconds
#
# Revision: 2
# Processed by: cddbd v1.4b41PL1 Copyright (c) Steve Scherf et al.
# Submitted via: Feurio! 1.60 - http://www.feurio.com
#
DISCID=250e1b14,3b0e1b14
DTITLE=Various Artist - Boogie Woogie - The Gold Collection [1/2]
DYEAR=1900
DGENRE=
TTITLE0=Pinetop Smith - Pinetop's Boogie Woogie (1928)
TTITLE1=Cow Cow Davenport - Cow Cow Blues (1928)
TTITLE2=Montana Taylor - Detroit Rocks (1929)
TTITLE3=Blind Blake and Charlie Spand - Hasting Street (1929)
TTITLE4=Speckled Red - The Dirty Dozen No 2 (1930)
TTITLE5=Meade Lux Lewis - Honky Tonk Train Blues (1935)
TTITLE6=Cleo Brown - Pinetop's Boogie Woogie (1935)
TTITLE7=Little Brother Montgomery - Farish Street (1936)
TTITLE8=Meade Lux Lewis - Mr. Freddie Blues (1936)
TTITLE9=Albert Ammons - Boogie Woogie Stomp (1936)
TTITLE10=Count Basie - Boogie Woogie (1937)
TTITLE11=Benny Goodman - Roll 'Em (1937)
TTITLE12=Tommy Dorsey - Boogie Woogie (1938)
TTITLE13=Meade Lux Lewis - Bear Cat Crawl (1938)
TTITLE14=Joe Turner and Pete Johnson - Roll 'Em Pete (1938)
TTITLE15=Bob Crosby - Yankey Special (1938)
TTITLE16=Jimmy Yancey - Yancey Stomp (1939)
TTITLE17=Albert Ammons - Suitcase Blues (1939)
TTITLE18=Cripple Clarence Lofton - I Don't Know (1939)
TTITLE19=Harry James and Pete Johnson - Boo Woo (1939)
EXTD=
EXTT0=
EXTT1=
EXTT2=
EXTT3=
EXTT4=
EXTT5=
EXTT6=
EXTT7=
EXTT8=
EXTT9=
EXTT10=
EXTT11=
EXTT12=
EXTT13=
EXTT14=
EXTT15=
EXTT16=
EXTT17=
EXTT18=
EXTT19=
PLAYORDER=
